<svg version="1.1" viewBox="0.0 0.0 288.0 288.0" fill="none" stroke="none" stroke-linecap="square" stroke-miterlimit="10" xmlns:xlink="http://www.w3.org/1999/xlink" xmlns="http://www.w3.org/2000/svg"><clipPath id="p.0"><path d="m0 0l288.0 0l0 288.0l-288.0 0l0 -288.0z" clip-rule="nonzero"/></clipPath><g clip-path="url(#p.0)"><path fill="#000000" fill-opacity="0.0" d="m0 0l288.0 0l0 288.0l-288.0 0z" fill-rule="evenodd"/><path fill="#ffffff" d="m0 0l288.0 0l0 288.0l-288.0 0z" fill-rule="evenodd"/><path stroke="#000000" stroke-width="24.0" stroke-linejoin="round" stroke-linecap="butt" d="m0 0l288.0 0l0 288.0l-288.0 0z" fill-rule="evenodd"/><path fill="#000000" d="m31.999664 23.999998l0 230.5956l144.08563 0l0 -27.212158l-113.56968 0l0 -203.38344z" fill-rule="evenodd"/><path stroke="#000000" stroke-width="1.0" stroke-linejoin="round" stroke-linecap="butt" d="m31.999664 23.999998l0 230.5956l144.08563 0l0 -27.212158l-113.56968 0l0 -203.38344z" fill-rule="evenodd"/><path fill="#000000" d="m111.99996 89.83733l0 174.11868l23.041603 0l0 -60.3358l28.505081 -27.79248l61.998535 88.12828l30.40541 0l-76.25107 -103.56856l73.04425 -70.55013l-31.236816 0l-86.46539 86.34672l0 -86.34672z" fill-rule="evenodd"/><path stroke="#000000" stroke-width="1.0" stroke-linejoin="round" stroke-linecap="butt" d="m111.99996 89.83733l0 174.11868l23.041603 0l0 -60.3358l28.505081 -27.79248l61.998535 88.12828l30.40541 0l-76.25107 -103.56856l73.04425 -70.55013l-31.236816 0l-86.46539 86.34672l0 -86.34672z" fill-rule="evenodd"/></g></svg>